PathFileType	4	(X/Y/Z)	../Python\walking\Walking08\task.trc
DataRate	CameraRate	NumFrames	NumMarkers	Units	OrigDataRate	OrigDataStartFrame	OrigNumFrames
200.000000	200.000000	4	30	mm	200.000000	438	501
Frame#	Time	CLAV			STRN			RASI			LPSI			LASI			RTH1			RTH2			RTH3			RTB1			RTB2			RTB3			RHEE			RD5M			RTOE			LTB1			LTB2			LTB3			LTOE			LD5M			RPSI			LTH2			LTH1			PE03			T10			LTH3			PE01			PE02			C7			RBAK			LHEE			
		X1	Y1	Z1	X2	Y2	Z2	X3	Y3	Z3	X4	Y4	Z4	X5	Y5	Z5	X6	Y6	Z6	X7	Y7	Z7	X8	Y8	Z8	X9	Y9	Z9	X10	Y10	Z10	X11	Y11	Z11	X12	Y12	Z12	X13	Y13	Z13	X14	Y14	Z14	X15	Y15	Z15	X16	Y16	Z16	X17	Y17	Z17	X18	Y18	Z18	X19	Y19	Z19	X20	Y20	Z20	X21	Y21	Z21	X22	Y22	Z22	X23	Y23	Z23	X24	Y24	Z24	X25	Y25	Z25	X26	Y26	Z26	X27	Y27	Z27	X28	Y28	Z28	X29	Y29	Z29	X30	Y30	Z30	

439	2.19	2499.386230468751	1433.873413085938	198.0852355957032	2552.022460937501	1241.197509765625	219.1762237548829	2509.730224609376	1022.083557128907	354.4480590820314	2369.162597656251	1074.208618164063	149.5906829833985	2552.418945312501	1031.620849609375	83.46192169189456	2506.482421875001	759.4946289062502	397.1912536621096	2466.093750000001	722.8780517578127	367.0877380371095	2499.248291015626	685.2843017578127	368.6019897460939	2494.402832031251	399.3056640625002	350.8132934570314	2433.479492187501	399.4373779296877	344.7368164062501	2433.814208984376	349.1645507812501	339.2447814941407	2185.717529296876	227.1343383789064	237.8501129150392	2258.330566406251	103.4376373291016	339.6217651367189	2313.028076171876	75.72210693359378	315.188446044922	2449.330078125001	353.4072570800782	97.57921600341803	2416.999511718751	316.8902282714845	107.6053619384766	2464.460693359376	277.6225891113282	114.7220535278321	2580.046386718751	24.42140960693361	201.5518646240236	2537.802001953126	10.01597213745118	146.4514923095704	2361.521240234376	1067.6494140625	249.2500000000001	2451.620849609376	679.1138916015627	59.8489799499512	2479.289794921876	718.5646972656252	48.95125198364261	2360.680908203126	1059.593872070313	174.2277526855469	2327.499755859376	1263.789184570313	186.511459350586	2502.240234375001	645.6594238281252	70.358024597168	2372.729248046876	1117.581665039063	202.9309082031251	2358.704589843751	1056.656616210938	225.0713806152345	2381.595214843751	1517.030883789063	173.4476013183594	2347.990966796876	1443.064575195313	347.0369873046876	2364.461914062501	35.48353576660158	189.6694793701172	
440	2.195	2505.693115234376	1434.352416992188	198.3195343017579	2558.151367187501	1241.712158203125	219.1804656982423	2515.853759765626	1023.165161132813	354.2431640625001	2375.064941406251	1074.814331054688	149.9380798339844	2558.101074218751	1031.689208984375	83.3474044799805	2514.984863281251	761.3437500000002	397.7798156738284	2475.136230468751	724.0754394531252	367.6713867187501	2508.843505859376	686.9633789062502	369.2694091796876	2508.404785156251	400.5305480957034	351.2529602050782	2447.488769531251	399.4443359375002	345.1109313964845	2448.815673828126	349.1553649902345	339.9541625976564	2202.778564453126	221.0466308593751	239.1783905029298	2279.559814453126	100.3663024902344	341.4847717285157	2334.922363281251	74.13936614990237	317.0066223144532	2450.107177734376	353.7545776367189	97.48444366455084	2417.668212890626	317.325897216797	107.643669128418	2465.030517578126	277.9117126464845	114.6065521240235	2580.167968750001	24.37473678588869	201.5217437744142	2537.799560546876	10.04689121246338	146.4874420166016	2367.561767578126	1068.543334960938	249.6230773925782	2454.727050781251	679.6813964843752	59.71228408813479	2482.843017578126	718.8984375000002	48.95808029174808	2366.612060546876	1060.24609375	174.6287841796876	2333.697509765626	1264.485961914063	186.3180236816407	2504.982910156251	645.7412719726565	70.44379425048831	2378.733154296876	1118.313720703125	203.1227111816407	2364.693115234376	1057.472534179688	225.4759674072267	2388.138671875001	1517.643676757813	173.6596069335938	2354.210937500001	1443.615356445313	347.0033569335939	2364.600830078126	36.02569580078126	189.975814819336	
441	2.2	2512.006103515626	1434.779174804688	198.5482788085939	2564.277343750001	1242.163940429688	219.1793823242189	2521.992187500001	1024.184204101563	354.0144958496095	2380.927734375001	1075.3486328125	150.3445434570313	2563.739746093751	1031.721313476563	83.20789337158206	2523.543457031251	763.1833496093752	398.3472900390627	2484.166503906251	725.2586059570315	368.338836669922	2518.418457031251	688.6298828125002	369.9814453125001	2522.335205078126	401.6340637207034	351.6514892578126	2461.449462890626	399.2698974609377	345.4927978515626	2463.814941406251	348.9939270019532	340.6286621093751	2220.096191406251	214.6924133300782	240.5388031005861	2300.996093750001	97.12201690673834	343.2598571777345	2356.976562500001	72.43830108642581	318.6966552734376	2450.910156250001	354.1087036132814	97.4265975952149	2418.368164062501	317.7768554687501	107.7350082397462	2465.625976562501	278.2108764648439	114.5262908935547	2580.298095703126	24.32603073120119	201.4921722412111	2537.790771484376	10.08230113983155	146.5379638671876	2373.586425781251	1069.365966796875	250.0524139404298	2457.815917968751	680.2291259765627	59.59915924072268	2486.377685546876	719.2063598632815	48.96104812622073	2372.513671875001	1060.82568359375	175.0871887207032	2339.892333984376	1265.138305664063	186.131332397461	2507.708740234376	645.8132324218752	70.53570556640628	2384.709472656251	1118.974487304688	203.3670501708986	2370.660156250001	1058.218017578125	225.9371337890626	2394.685302734376	1518.207397460938	173.8717498779297	2360.437500000001	1444.119506835938	346.9678649902345	2364.759033203126	36.58181762695314	190.3406524658204	
442	2.205	2518.327392578126	1435.150146484375	198.7718048095704	2570.400390625001	1242.54833984375	219.1743469238282	2528.143310546876	1025.138549804688	353.7651977539064	2386.752441406251	1075.80810546875	150.8052825927735	2569.336669921876	1031.715087890625	83.04592895507815	2532.154052734376	765.007751464844	398.8929748535159	2493.178955078126	726.422302246094	369.0880432128907	2527.965820312501	690.2771606445315	370.7325744628907	2536.191894531251	402.6135559082034	352.0106506347657	2475.362792968751	398.9145202636721	345.8818664550782	2478.810546875001	348.6832275390626	341.268035888672	2237.680419921876	208.0904541015626	241.9191741943361	2322.641113281251	93.72332763671878	344.950164794922	2379.192138671876	70.63375091552737	320.267059326172	2451.744628906251	354.4672241210939	97.41053009033209	2419.104980468751	318.2427062988282	107.8785934448243	2466.251464843751	278.5183410644532	114.4900665283204	2580.436035156251	24.27624511718751	201.4642639160157	2537.773681640626	10.12334346771241	146.6051330566407	2379.594970703126	1070.1123046875	250.5330047607423	2460.899414062501	680.7567138671877	59.52140808105472	2489.899658203126	719.488220214844	48.96549224853518	2378.385986328126	1061.329223632813	175.5981597900391	2346.084716796876	1265.744384765625	185.9524383544922	2510.433837890626	645.877136230469	70.63301849365237	2390.659423828126	1119.559936523438	203.6602325439454	2376.606445312501	1058.888793945313	226.4501342773439	2401.236816406251	1518.719482421875	174.0837860107422	2366.672119140626	1444.575073242188	346.9311523437501	2364.935058593751	37.14783477783205	190.7667694091797	
